<svg xmlns="http://www.w3.org/2000/svg" width="415.315" height="479.666" viewBox="0 0 415.315 479.666"><g fill-rule="evenodd" clip-rule="evenodd"><path fill="#FFF" d="M318.658 479.666h-224l.07-65.07-.14.14h32.14v-32.14l-.14.14h160.14l-.14-.14v32.14h32.14l-.14-.14.07 65.07zm-128.21-33.2v-31.522h-31.58v31.523h31.58zm63.935.032v-31.496h-31.45v31.496h31.45z"/><path d="M318.658 479.666l-.07-65.07h32.07v65.07h-32zM94.727 414.597l-.07 65.07h-32v-65.07h32.07zM30.737 30.734V0h351.84v30.734l.15-.14c-40.958.023-81.916.066-122.874.063-76.422-.006-152.844-.04-229.267-.062l.15.14zM286.727 382.735h-160.14v-63.74h31.924V350.3h32.083v-31.382h31.9v31.46H254.4v-31.62h32.317l-.144-.144.154 64.123zM222.725 222.588H30.737v-31.99l-.15.14h192v32l.138-.15zM286.717 318.756l.02-32.158-.15.14h32.263v-96h63.88l-.15-.14v31.91h-31.818v96.104h-64.187l.142.144z"/><path d="M382.58 30.734h32.735v159.863H382.58l.148.14V30.594l-.15.14zM30.737 190.598H0V30.734h30.737l-.15-.14v160.142l.15-.138zM126.727 382.597v32.14h-32.14v-32.14M318.727 414.735h-32.14v-32.14h32.14v32.14zM286.737 286.598h-32v-32l-.15.14h32v32l.15-.14zM254.737 254.598h-32.012v-32.01l-.138.148h32v32l.15-.138zM190.447 446.467h-31.58v-31.523h31.58v31.523z"/><path fill="#DDD" d="M158.306 446.467h-31.58v-31.523h31.58v31.523zM222.447 446.467h-31.58v-31.523h31.58v31.523zM286.452 446.467h-31.58v-31.523h31.58v31.523z"/><path d="M254.383 446.498h-31.45v-31.496h31.45v31.496z"/><path fill="#FFF" d="M254.587 254.736v-32h-32v-32h-192V30.596c76.422.02 152.844.055 229.267.06 40.958.005 81.916-.038 122.874-.06v160.14h-63.88v96h-32.26v-32h-32z"/><path fill="#A8A8A8" d="M319.078 158.82H62.858v-31.99l-.2.14h256.238v32l.182-.15z"/></g><path fill-rule="evenodd" clip-rule="evenodd" fill="#A8A8A8" d="M286.658 95.055H62.413v-31.99l-.175.14h224.26v32l.16-.15zM352.66 94.57l-31.397.018c-.005-10.805-.01-21.397-.017-31.99l-.024.14 31.398-.018c.005 11.056.01 21.527.017 32l.022-.15z"/></svg>